<?xml version="1.0" standalone="no"?>
<!DOCTYPE svg PUBLIC "-//W3C//DTD SVG 1.1//EN" "http://www.w3.org/Graphics/SVG/1.1/DTD/svg11.dtd" >
<svg xmlns="http://www.w3.org/2000/svg">
<metadata>Generated by IcoMoon</metadata>
<defs>
<font id="icomoon" horiz-adv-x="1024">
<font-face units-per-em="1024" ascent="960" descent="-64" />
<missing-glyph horiz-adv-x="1024" />
<glyph unicode="&#x20;" horiz-adv-x="512" d="" />
<glyph unicode="&#xe900;" glyph-name="catalog-open" horiz-adv-x="1126" d="M510.874 451.973l303.227 303.227 217.221-217.223-521.334-521.336-217.223 217.223 0.886 0.886-293.65 293.65 217.223 217.223 293.65-293.65z" />
<glyph unicode="&#xe901;" glyph-name="header-email" d="M511.969 448.003l404.244 205.858v89.926c0 10.268 0 18.603 0 18.603h-808.421c0 0 0.001-8.334 0.001-18.603v-91.302l404.176-204.481zM519.042 379.028c-2.291-1.149-4.682-1.752-7.040-1.752-2.324 0-4.716 0.603-7.006 1.69l-397.204 202.462v-447.813c0 0 7.545 0 16.842 0h774.734c9.267 0 16.845 0 16.845 0v449.125l-397.17-203.712z" />
<glyph unicode="&#xe902;" glyph-name="header-phone" d="M712.482 591.098l-53.208 53.163c84.782-9.856 151.040-81.28 151.040-168.661h85.333c0 135.509-105.853 246.401-239.189 255.147l56.024 55.979-60.331 60.331-158.165-158.166 158.165-158.165 60.331 60.373zM589.471 284.712c-23.595 1.604-91.591 41.813-121.771 71.959s-77.492 106.636-77.492 135.61l63.206 63.445-168.96 253.355-112.213-112.214c-93.057-93.099-33.408-298.453 135.765-467.627 111.275-111.275 244.736-180.395 348.332-180.395 48.896 0 90.112 15.4 119.381 44.629l112.128 112.213-226.418 150.983-71.959-71.959z" />
<glyph unicode="&#xe903;" glyph-name="icon-close" horiz-adv-x="939" d="M445.234 258.767l-255.567-255.567-181.020 181.018 255.568 255.567-264.215 264.215 181.019 181.019 264.215-264.215 264.216 264.216 181.020-181.019-264.217-264.216 255.572-255.568-181.024-181.018-255.568 255.567z" />
<glyph unicode="&#xe904;" glyph-name="contacts-position" horiz-adv-x="878" d="M716.504 837.141c-78.732 78.669-185.478 122.859-296.777 122.859s-218.045-44.19-296.777-122.859c-38.979-38.97-69.9-85.237-90.996-136.158s-31.954-105.501-31.954-160.619c0-55.118 10.858-109.697 31.954-160.618s52.016-97.189 90.996-136.159l252.343-252.342c11.672-11.579 27.446-18.074 43.886-18.074s32.214 6.495 43.886 18.074l252.343 252.342c38.981 38.97 69.899 85.237 90.993 136.159 21.102 50.921 31.956 105.5 31.956 160.618s-10.854 109.697-31.956 160.619c-21.094 50.921-52.012 97.189-90.993 136.158h1.097zM501.025 459.066c-16.080-16.082-36.567-27.034-58.872-31.472s-45.424-2.161-66.434 6.54c-21.011 8.703-38.97 23.44-51.604 42.348s-19.378 41.14-19.378 63.882c0 22.742 6.744 44.973 19.378 63.882s30.593 33.646 51.604 42.348c21.010 8.703 44.13 10.978 66.434 6.54s42.792-15.39 58.872-31.472c10.688-10.669 19.168-23.341 24.953-37.292s8.764-28.904 8.764-44.006c0-15.102-2.978-30.056-8.764-44.006s-14.265-26.623-24.953-37.292z" />
<glyph unicode="&#xe905;" glyph-name="contacts-worktime" horiz-adv-x="945" d="M472.615 920.615c-260.19 0-472.615-212.426-472.615-472.615 0-261.447 212.426-472.615 472.615-472.615s472.615 212.426 472.615 472.615c0 260.19-212.426 472.615-472.615 472.615zM731.548 372.582h-330.579v364.517h100.556v-263.96h230.023v-100.557z" />
<glyph unicode="&#xe906;" glyph-name="social-instagram" horiz-adv-x="951" d="M475.429 641.142c-107.529 0-195-87.471-195-195s87.472-195 195-195c107.529 0 195 87.472 195 195s-87.472 195-195 195zM475.429 641.142c-107.529 0-195-87.471-195-195s87.472-195 195-195c107.529 0 195 87.472 195 195s-87.472 195-195 195zM811.571 923.429h-672.285c-76.886 0-139.286-62.4-139.286-139.286v-672.285c0-76.888 62.4-139.286 139.286-139.286h672.285c76.888 0 139.286 62.398 139.286 139.286v672.285c0 76.886-62.398 139.286-139.286 139.286zM475.429 195.43c-138.17 0-250.714 112.543-250.714 250.713 0 138.173 112.544 250.714 250.714 250.714s250.714-112.541 250.714-250.714c0-138.17-112.544-250.713-250.714-250.713zM781.861 696.857c-30.647 0-55.718 25.072-55.718 55.714s25.071 55.714 55.718 55.714c30.64 0 55.713-25.071 55.713-55.714s-25.073-55.714-55.713-55.714zM475.429 641.142c-107.529 0-195-87.471-195-195s87.472-195 195-195c107.529 0 195 87.472 195 195s-87.472 195-195 195zM475.429 641.142c-107.529 0-195-87.471-195-195s87.472-195 195-195c107.529 0 195 87.472 195 195s-87.472 195-195 195zM475.429 641.142c-107.529 0-195-87.471-195-195s87.472-195 195-195c107.529 0 195 87.472 195 195s-87.472 195-195 195z" />
<glyph unicode="&#xe907;" glyph-name="social-youtube" d="M984.090 149.549c-36.966-43.936-105.21-61.862-235.539-61.862h-473.108c-133.315 0-202.716 19.078-239.54 65.862-35.903 45.606-35.903 112.813-35.903 205.826v177.281c0 180.195 42.598 271.684 275.443 271.684h473.108c113.024 0 175.654-15.816 216.173-54.593 41.549-39.764 59.277-104.689 59.277-217.091v-177.281c0-98.088-2.778-165.692-39.91-209.826zM657.414 472.49l-214.838 112.28c-4.803 2.511-10.055 3.756-15.3 3.756-5.939 0-11.865-1.599-17.114-4.777-9.883-5.988-15.918-16.701-15.918-28.255v-223.84c0-11.535 6.019-22.239 15.882-28.23 9.866-5.99 22.138-6.4 32.374-1.082l214.838 111.555c10.931 5.675 17.792 16.959 17.811 29.27 0.013 12.321-6.822 23.622-17.734 29.323z" />
<glyph unicode="&#xe908;" glyph-name="contacts-email" horiz-adv-x="1210" d="M43.216 880.205h1123.734l-561.866-462.808-568.222 461.512c2.079 0.608 4.204 1.041 6.354 1.297zM577.774 328.026c15.924-13.040 38.836-13.040 54.76 0l577.601 475.86v-744.867c0-23.871-19.354-43.222-43.222-43.222h-1123.737c-23.871 0-43.222 19.351-43.222 43.222v738.47l577.82-469.463z" />
<glyph unicode="&#xe909;" glyph-name="contacts-phone" d="M779.952 624.129l-65.483 65.431c104.345-12.13 185.895-100.037 185.895-207.584h105.023c0 166.781-130.284 303.262-294.383 314.028l68.949 68.896-74.253 74.254-194.664-194.666 194.664-194.665 74.253 74.305zM628.548 247.037c-29.041 1.975-112.729 51.46-149.874 88.562s-95.375 131.246-95.375 166.906l77.792 78.086-207.951 311.822-138.109-138.109c-114.53-114.583-41.117-367.328 167.096-575.542 136.954-136.951 301.214-222.022 428.715-222.022 60.18 0 110.909 18.952 146.931 54.926l138.004 138.106-278.667 185.827-88.563-88.562z" />
<glyph unicode="&#xe90a;" glyph-name="catalog-item-enamel" d="M987.136 849.409c-4.096 4.096-12.288 8.192-20.48 8.192h-24.576v32.768c0 8.192-4.096 12.288-8.192 20.48-4.096 4.096-12.288 8.192-16.384 8.192h-798.721c-8.192 0-16.384-4.096-20.48-8.192s-8.192-12.288-8.192-20.48v-36.864h-24.576c-8.192 0-12.288-4.096-20.48-8.192-4.096 0-4.096-8.192-4.096-16.384v-225.28c0-53.248 16.384-106.496 53.248-151.553v-462.848c0-8.192 4.096-12.288 8.192-20.48 4.096-4.096 12.288-8.192 20.48-8.192h798.721c8.192 0 12.288 4.096 20.48 8.192 0 8.192 0 16.384 0 20.48v462.848c32.768 45.057 49.152 98.305 53.248 151.553v225.28c0 8.192-4.096 16.384-8.192 20.48zM102.399 501.249l-12.288 36.864c-8.192 20.48-12.288 40.96-12.288 65.536v208.896h20.48v-311.296h4.096zM143.359 861.697h745.473v-143.36c0-16.384-4.096-24.576-8.192-28.672h-32.768c-4.096 4.096-8.192 12.288-8.192 28.672 0 8.192-4.096 12.288-8.192 20.48-8.192 8.192-28.672 8.192-36.864 0-4.096-4.096-8.192-12.288-8.192-20.48v-430.081c0-16.384-4.096-24.576-8.192-28.672h-32.768c-4.096 4.096-8.192 12.288-8.192 28.672v94.208c0 8.192-4.096 12.288-8.192 20.48-8.192 8.192-28.672 8.192-36.864 0-4.096-4.096-8.192-12.288-8.192-20.48 0-16.384-4.096-24.576-8.192-28.672h-32.768c-4.096 4.096-8.192 12.288-8.192 28.672 0 8.192-4.096 12.288-8.192 20.48-8.192 8.192-28.672 8.192-36.864 0-4.096-4.096-8.192-12.288-8.192-20.48v-225.28c0-16.384-4.096-24.576-8.192-28.672h-32.768c-4.096 4.096-8.192 12.288-8.192 28.672v602.113c0 8.192-4.096 12.288-8.192 20.48-8.192 8.192-28.672 8.192-36.865 0-4.096-4.096-8.192-12.288-8.192-20.48 0-16.384-4.096-24.576-8.192-28.672h-32.768c-4.096 4.096-8.192 12.288-8.192 28.672 0 8.192-4.096 12.288-8.192 20.48-8.192 8.192-28.672 8.192-36.864 0-4.096-8.192-8.192-12.288-8.192-20.48v-188.416c0-16.384-4.096-24.576-8.192-28.672h-53.248c-4.096 4.096-8.192 12.288-8.192 28.672 0 8.192-4.096 12.288-8.192 20.48-12.288 8.192-28.672 8.192-36.864 0-4.096-8.192-8.192-12.288-8.192-20.48v-339.969c0-16.384-4.096-24.576-8.192-28.672h-12.288c-4.096 4.096-8.192 12.288-8.192 28.672v151.552c0 8.192-4.096 12.288-8.192 20.48-8.192 8.192-28.672 8.192-36.864 0-4.096-4.096-8.192-12.288-8.192-20.48 0-16.384-4.096-24.576-8.192-28.672h-12.288c-4.096 4.096-8.192 12.288-8.192 28.672v479.233zM901.12 1.536h-770.049v311.296l8.192-4.096c4.096 0 4.096 0 8.192 0h20.48c4.096 0 4.096 0 8.192 0l8.192 4.096v-81.92c0-40.96 20.48-69.632 45.056-69.632h20.48c24.576 0 45.056 28.672 45.056 69.632v270.337l8.192-4.096c4.096 0 4.096 0 8.192 0h61.44c24.576 0 45.056 28.672 45.056 69.632v122.88l8.192-4.096c4.096 0 4.096 0 8.192 0h40.96c4.096 0 4.096 0 8.192 0l8.193 4.096v-532.481c0-40.96 20.48-69.632 45.056-69.632h40.96c24.576 0 45.056 28.672 45.056 69.632v159.744l8.192-4.096c4.096 0 4.096 0 8.192 0h40.96c4.096 0 4.096 0 8.192 0l8.192 4.096v-28.672c0-40.96 20.48-69.632 45.056-69.632h40.96c24.576 0 45.056 28.672 45.056 69.632v364.545l8.192-4.096c4.096 0 4.096 0 8.192 0h40.96c4.096 0 4.096 0 8.192 0l8.192 4.096v-651.265zM950.272 603.649c0-20.48-4.096-45.056-12.288-65.536l-12.288-36.864v311.296h24.576v-208.896z" />
<glyph unicode="&#xe90b;" glyph-name="catalog-item-dirt" horiz-adv-x="973" d="M903.583 594.434h-68.813v55.91c0 30.106-21.504 55.91-51.61 64.512v25.805c0 30.106-21.504 55.91-47.309 64.512v94.618c0 4.301-4.301 12.903-8.602 12.903 4.301 4.301-4.301 4.301-8.602 4.301l-129.024-25.805c-8.602 0-17.203-8.602-17.203-17.203v-68.813h-292.457c-34.406 0-64.512-30.106-64.512-64.512v-25.805c-30.106-8.602-51.61-34.406-51.61-64.512v-51.61h-64.512c-34.406-4.301-64.512-34.406-64.512-68.813v-232.245c0-34.406 30.105-64.512 64.512-64.512h64.512v-210.739c0-34.406 30.106-64.512 64.512-64.512h541.903c34.406 0 64.512 30.106 64.512 64.512v210.739h68.813c34.406 0 64.512 30.106 64.512 64.512v232.245c0 34.406-30.106 64.512-64.512 64.512zM150.94 289.075h-51.61c-8.602 0-12.902 4.301-12.902 12.902v227.944c0 8.602 4.301 12.902 12.902 12.902h55.91v-253.749h-4.301zM628.332 848.181l64.512 12.902v-38.707h-64.512v25.805zM267.062 740.661c0 8.602 8.602 12.902 12.902 12.902h442.985c8.602 0 12.902-8.602 12.902-12.902v-12.902h-468.79v12.902zM787.461 22.426c0-8.602-4.301-12.902-12.902-12.902h-541.903c-8.602 0-12.902 4.301-12.902 12.902v627.918c0 8.602 4.301 12.902 12.902 12.902h533.302c8.602 0 12.902-4.301 12.902-12.902v-627.918h8.602zM916.485 301.978c0-8.602-4.301-12.902-12.902-12.902h-51.61v258.050h55.91c8.602 0 12.902-4.301 12.902-12.902v-232.245h-4.301z" />
<glyph unicode="&#xe90c;" glyph-name="catalog-item-allproduct" horiz-adv-x="942" d="M562.237 713.915l-167.39 111.599v104.441c0 16.568-13.432 30-30 30h-120.499c-16.568 0-30-13.432-30-30v-104.443l-167.389-111.593c-8.054-5.38-13.36-14.55-13.36-24.962v-722.995c0-16.568 13.432-29.999 30-29.999h481.996l25.604 44.614 4.395 708.38c0 10.412-5.308 19.578-13.357 24.958zM253.43 779.457h102.333l90.75-60.5h-283.832l90.749 60.5zM274.348 899.956h60.5v-60.5h-60.5v60.5zM515.596-4.039h-421.997v662.996h421.997v-662.996zM919.327 513.913l-124.342 82.901v77.585c0 12.307-9.978 22.286-22.286 22.286h-89.514c-12.308 0-22.286-9.978-22.286-22.286v-77.586l-86.258-61.534-0.385-62.194-3.056-492.507-25.604-44.614 361.374 0.041c12.304 0 22.282 9.978 22.282 22.286v537.080c0 7.737-3.94 14.545-9.925 18.543zM689.93 562.599h76.018l67.416-44.943h-210.846l67.412 44.943zM705.47 652.113h44.941v-44.943h-44.941v44.943zM884.683-19.423h-313.483l3.056 492.507h310.428v-492.507zM526.627 404.111h-468.113v58.515h468.113v-58.515zM906.973 316.342h-351.089v58.511h351.089v-58.511zM906.973 111.542h-351.089v58.511h351.089v-58.511zM526.627 140.796h-468.113v58.515h468.113v-58.515z" />
<glyph unicode="&#xe90d;" glyph-name="catalog-item-accessories" d="M95.873 960h704.764c26.518 0 50.995-11.219 67.314-28.558 17.338-17.339 28.557-40.797 28.557-67.315v-64.255h94.855c17.338 0 32.637-14.279 32.637-32.637v-286.598c0-18.358-15.299-32.637-32.637-32.637h-510.98v-127.488h31.617c18.358 0 32.637-14.283 32.637-32.641v-319.234c0-18.358-14.279-32.637-32.637-32.637h-127.49c-17.339 0-31.617 14.279-31.617 32.637v319.234c0 18.358 14.279 32.641 31.617 32.641h31.619v160.125c0 17.338 14.279 31.617 32.637 31.617h510.98v223.363h-63.238v-64.255c0-26.518-11.219-49.976-28.557-67.315-16.318-17.339-40.796-28.558-67.314-28.558h-704.764c-26.518 0-49.976 11.219-67.315 28.558s-28.558 40.797-28.558 67.315v192.765c0 26.518 11.219 49.976 28.558 67.315s40.797 28.558 67.315 28.558zM480.383 256.254h-64.254v-256h64.254v256zM800.637 895.745h-704.764c-8.16 0-16.319-4.080-22.438-9.18-5.1-6.119-9.18-14.279-9.18-22.438v-192.765c0-9.18 4.080-16.319 9.18-22.438 6.119-6.119 14.279-9.179 22.438-9.179h704.764c9.179 0 16.318 3.060 22.438 9.179s9.179 13.259 9.179 22.438v192.765c0 8.16-3.060 16.319-9.179 22.438-6.119 5.1-13.259 9.18-22.438 9.18z" />
<glyph unicode="&#xe90e;" glyph-name="catalog-item-equipment" d="M954.368 326.144h-306.176l217.088 217.088c17.408 17.408 17.408 45.056 0 62.464l-196.608 194.56c-17.408 17.408-45.056 17.408-62.464 0l-216.064-216.064v306.176c0 24.576-19.456 44.032-44.032 44.032h-276.48c-24.576 0-44.032-19.456-44.032-44.032v-884.736c0-24.576 19.456-44.032 44.032-44.032l883.712-1.024c24.576 0 44.032 19.456 44.032 44.032v276.48c1.024 25.6-19.456 45.056-43.008 45.056zM724.992 464.384l-78.848-78.848-196.608 196.608 78.848 78.848 196.608-196.608zM637.952 770.56l195.584-196.608-78.848-78.848-195.584 196.608 78.848 78.848zM418.816 551.424l196.608-196.608-78.848-78.848-146.432 146.432v100.352l28.672 28.672zM347.136 736.768v-111.616h-277.504v111.616h277.504zM347.136 581.12v-111.616h-277.504v111.616h277.504zM347.136 426.496v-111.616h-277.504v111.616h277.504zM390.144 360.96l115.712-115.712-115.712-115.712v231.424zM347.136 890.368v-110.592h-277.504v111.616l277.504-1.024zM69.632 5.632v266.24h278.528v-266.24c0 0 0-1.024-1.024-1.024l-277.504 1.024zM390.144 4.608v64.512l99.328 99.328v-163.84h-99.328zM645.12 4.608h-111.616v206.848l71.68 71.68h39.936v-278.528zM799.744 4.608h-111.616v278.528h111.616v-278.528zM954.368 4.608h-111.616v277.504h111.616v-277.504zM207.869 195.072c-30.72 0-56.32-25.6-56.32-56.32s25.6-56.32 56.32-56.32c30.72 0 56.32 25.6 56.32 56.32 1.024 30.72-24.576 56.32-56.32 56.32zM648.192 326.144l-5.792 5.792-13.984-13.984h19.775v8.192zM865.28 543.232v0zM865.28 605.696l5.792 5.793-0.029 0.030-5.763-5.823zM668.672 800.256l-5.792-5.793 0.029-0.030 5.763 5.823zM606.208 800.256v0zM390.144 584.192h-8.192v-19.777l13.985 13.985-5.793 5.793zM69.632-38.4l0.009 8.192h-0.009v-8.192zM953.344-39.424l-0.008-8.192h0.008v8.192zM997.376 281.088l-8.192 0.328v-0.328h8.192zM724.992 464.384l5.792-5.792 5.792 5.792-5.792 5.792-5.792-5.792zM646.144 385.536l-5.792-5.792 5.792-5.792 5.792 5.792-5.792 5.792zM449.536 582.144l-5.792 5.793-5.792-5.793 5.792-5.793 5.792 5.793zM528.384 660.992l5.792 5.793-5.792 5.793-5.792-5.793 5.792-5.793zM637.952 770.56l5.808 5.777-5.792 5.823-5.808-5.808 5.792-5.793zM833.536 573.952l5.792-5.793 5.779 5.777-5.763 5.793-5.808-5.777zM754.688 495.104l-5.808-5.779 5.792-5.82 5.808 5.808-5.792 5.792zM559.104 691.712l-5.792 5.793-5.779-5.777 5.763-5.793 5.808 5.777zM418.816 551.424l5.792 5.793-5.792 5.793-5.792-5.793 5.792-5.793zM615.424 354.816l5.792-5.792 5.792 5.792-5.792 5.792-5.792-5.792zM536.576 275.968l-5.792-5.792 5.792-5.792 5.792 5.792-5.792 5.792zM390.144 422.4h-8.192v-3.391l2.399-2.4 5.793 5.792zM390.144 522.752l-5.793 5.792-2.399-2.4v-3.391h8.192zM347.136 736.768h8.192v8.192h-8.192v-8.192zM347.136 625.152v-8.192h8.192v8.192h-8.192zM69.632 625.152h-8.192v-8.192h8.192v8.192zM69.632 736.768v8.192h-8.192v-8.192h8.192zM347.136 581.12h8.192v8.192h-8.192v-8.192zM347.136 469.504v-8.192h8.192v8.192h-8.192zM69.632 469.504h-8.192v-8.192h8.192v8.192zM69.632 581.12v8.192h-8.192v-8.192h8.192zM347.136 426.496h8.192v8.192h-8.192v-8.192zM347.136 314.88v-8.192h8.192v8.192h-8.192zM69.632 314.88h-8.192v-8.192h8.192v8.192zM69.632 426.496v8.192h-8.192v-8.192h8.192zM390.144 360.96l5.793 5.792-13.985 13.984v-19.775h8.192zM505.856 245.248l5.792-5.792 5.792 5.792-5.792 5.792-5.792-5.792zM390.144 129.536h-8.192v-19.775l13.985 13.984-5.793 5.792zM347.136 890.368h8.192v8.162l-8.162 0.030-0.030-8.192zM347.136 779.776v-8.192h8.192v8.192h-8.192zM69.632 779.776h-8.192v-8.192h8.192v8.192zM69.632 891.392l0.030 8.192-8.222 0.030v-8.222h8.192zM69.632 5.632h-8.192v-8.163l8.162-0.029 0.030 8.192zM69.632 271.872v8.192h-8.192v-8.192h8.192zM348.16 271.872h8.192v8.192h-8.192v-8.192zM348.16 5.632v0zM347.136 4.608l-0.030-8.192h0.030v8.192zM390.144 4.608h-8.192v-8.192h8.192v8.192zM390.144 69.12l-5.793 5.792-2.399-2.4v-3.391h8.192zM489.472 168.448h8.192v19.775l-13.984-13.984 5.792-5.792zM489.472 4.608v-8.192h8.192v8.192h-8.192zM645.12 4.608v-8.192h8.192v8.192h-8.192zM533.504 4.608h-8.192v-8.192h8.192v8.192zM533.504 211.456l-5.792 5.792-2.4-2.4v-3.391h8.192zM605.184 283.136v8.192h-3.391l-2.4-2.4 5.792-5.792zM645.12 283.136h8.192v8.192h-8.192v-8.192zM799.744 4.608v-8.192h8.192v8.192h-8.192zM688.128 4.608h-8.192v-8.192h8.192v8.192zM688.128 283.136v8.192h-8.192v-8.192h8.192zM799.744 283.136h8.192v8.192h-8.192v-8.192zM954.368 4.608v-8.192h8.192v8.192h-8.192zM842.752 4.608h-8.192v-8.192h8.192v8.192zM842.752 282.112v8.192h-8.192v-8.192h8.192zM954.368 282.112h8.192v8.192h-8.192v-8.192zM264.189 138.752l-8.192 0.274v-0.274h8.192zM954.368 334.336h-306.176v-16.384h306.176v16.384zM653.984 320.352l217.088 217.088-11.583 11.583-217.088-217.088 11.583-11.583zM871.072 537.44c20.607 20.606 20.607 53.441 0 74.048l-11.583-11.585c14.209-14.209 14.209-36.67 0-50.88l11.583-11.583zM871.043 611.519l-196.608 194.56-11.526-11.646 196.608-194.56 11.526 11.646zM674.464 806.049c-20.607 20.607-53.441 20.607-74.047 0l11.583-11.585c14.209 14.209 36.671 14.209 50.881 0l11.583 11.585zM600.416 806.049l-216.065-216.064 11.585-11.585 216.063 216.064-11.583 11.585zM398.336 584.192v306.176h-16.384v-306.176h16.384zM398.336 890.368c0 29.1-23.124 52.224-52.224 52.224v-16.384c20.052 0 35.84-15.788 35.84-35.84h16.384zM346.112 942.592h-276.48v-16.384h276.48v16.384zM69.632 942.592c-29.1 0-52.224-23.124-52.224-52.224h16.384c0 20.052 15.788 35.84 35.84 35.84v16.384zM17.408 890.368v-884.736h16.384v884.736h-16.384zM17.408 5.632c0-29.102 23.124-52.224 52.224-52.224v16.384c-20.052 0-35.84 15.79-35.84 35.84h-16.384zM69.623-46.592l883.713-1.024 0.016 16.384-883.711 1.024-0.019-16.384zM953.344-47.616c29.102 0 52.224 23.122 52.224 52.224h-16.384c0-20.050-15.79-35.84-35.84-35.84v-16.384zM1005.568 4.608v276.48h-16.384v-276.48h16.384zM1005.56 280.76c1.221 30.437-23.175 53.576-51.192 53.576v-16.384c19.091 0 35.652-15.774 34.824-36.536l16.368-0.655zM719.2 470.176l-78.848-78.848 11.583-11.583 78.848 78.848-11.583 11.583zM651.936 391.328l-196.608 196.609-11.583-11.585 196.608-196.607 11.583 11.583zM455.328 576.351l78.848 78.848-11.583 11.585-78.848-78.848 11.583-11.585zM522.592 655.199l196.608-196.607 11.583 11.583-196.608 196.609-11.583-11.585zM632.144 764.783l195.584-196.608 11.616 11.555-195.584 196.608-11.616-11.555zM827.744 579.745l-78.848-78.849 11.583-11.583 78.848 78.847-11.583 11.585zM760.496 500.883l-195.584 196.606-11.616-11.555 195.584-196.61 11.616 11.559zM564.896 685.919l78.848 78.848-11.583 11.585-78.848-78.848 11.583-11.585zM413.024 545.632l196.608-196.608 11.583 11.583-196.608 196.609-11.583-11.584zM609.632 360.608l-78.848-78.848 11.583-11.583 78.848 78.848-11.583 11.583zM542.368 281.76l-146.431 146.432-11.585-11.583 146.433-146.432 11.583 11.583zM398.336 422.4v100.352h-16.384v-100.352h16.384zM395.937 516.96l28.671 28.672-11.583 11.584-28.673-28.673 11.585-11.583zM338.944 736.768v-111.616h16.384v111.616h-16.384zM347.136 633.344h-277.504v-16.384h277.504v16.384zM77.824 625.152v111.616h-16.384v-111.616h16.384zM69.632 728.576h277.504v16.384h-277.504v-16.384zM338.944 581.12v-111.616h16.384v111.616h-16.384zM347.136 477.696h-277.504v-16.384h277.504v16.384zM77.824 469.504v111.616h-16.384v-111.616h16.384zM69.632 572.928h277.504v16.384h-277.504v-16.384zM338.944 426.496v-111.616h16.384v111.616h-16.384zM347.136 323.072h-277.504v-16.384h277.504v16.384zM77.824 314.88v111.616h-16.384v-111.616h16.384zM69.632 418.304h277.504v16.384h-277.504v-16.384zM384.351 355.168l115.713-115.712 11.583 11.583-115.711 115.712-11.585-11.583zM500.064 251.040l-115.713-115.712 11.585-11.583 115.711 115.712-11.583 11.583zM398.336 129.536v231.424h-16.384v-231.424h16.384zM338.944 890.368v-110.592h16.384v110.592h-16.384zM347.136 787.968h-277.504v-16.384h277.504v16.384zM77.824 779.776v111.616h-16.384v-111.616h16.384zM69.602 883.2l277.504-1.024 0.061 16.384-277.504 1.024-0.061-16.384zM77.824 5.632v266.24h-16.384v-266.24h16.384zM69.632 263.68h278.528v16.384h-278.528v-16.384zM339.968 271.872v-266.24h16.384v266.24h-16.384zM348.16 5.632c-8.192 0-8.192 0.004-8.192 0.008 0 0 0 0.004 0 0.008s0 0.012 0 0.016c0 0.008 0 0.020 0 0.033 0 0.020 0 0.041 0.001 0.066 0 0.041 0.002 0.086 0.003 0.131 0.003 0.090 0.007 0.18 0.014 0.279 0.014 0.188 0.037 0.406 0.077 0.647 0.073 0.438 0.236 1.151 0.641 1.962 0.422 0.844 1.183 1.937 2.479 2.802 1.347 0.897 2.775 1.217 3.952 1.217v-16.384c1.69 0 3.501 0.446 5.136 1.536 1.584 1.057 2.537 2.404 3.087 3.506 0.534 1.065 0.76 2.036 0.865 2.666 0.056 0.336 0.087 0.635 0.104 0.881 0.009 0.123 0.015 0.238 0.018 0.344 0.002 0.049 0.003 0.102 0.004 0.147 0 0.025 0.001 0.049 0.001 0.070 0 0.012 0 0.020 0 0.033 0 0.004 0 0.012 0 0.016s0 0.008 0 0.008 0 0.008-8.192 0.008zM347.166 12.8l-277.504 1.024-0.061-16.384 277.504-1.024 0.061 16.384zM395.937 63.328l99.327 99.328-11.583 11.583-99.329-99.328 11.585-11.583zM481.28 168.448v-163.84h16.384v163.84h-16.384zM489.472 12.8h-99.328v-16.384h99.328v16.384zM645.12 12.8h-111.616v-16.384h111.616v16.384zM541.696 4.608v206.848h-16.384v-206.848h16.384zM539.296 205.664l71.68 71.68-11.583 11.583-71.68-71.68 11.583-11.583zM605.184 274.944h39.936v16.384h-39.936v-16.384zM636.928 283.136v-278.528h16.384v278.528h-16.384zM799.744 12.8h-111.616v-16.384h111.616v16.384zM696.32 4.608v278.528h-16.384v-278.528h16.384zM688.128 274.944h111.616v16.384h-111.616v-16.384zM791.552 283.136v-278.528h16.384v278.528h-16.384zM954.368 12.8h-111.616v-16.384h111.616v16.384zM850.944 4.608v277.504h-16.384v-277.504h16.384zM842.752 273.92h111.616v16.384h-111.616v-16.384zM946.176 282.112v-277.504h16.384v277.504h-16.384zM207.869 203.264c-35.244 0-64.512-29.266-64.512-64.512h16.384c0 26.194 21.932 48.128 48.128 48.128v16.384zM143.357 138.752c0-35.242 29.268-64.512 64.512-64.512v16.384c-26.196 0-48.128 21.934-48.128 48.128h-16.384zM207.869 74.24c35.244 0 64.512 29.27 64.512 64.512h-16.384c0-26.194-21.932-48.128-48.128-48.128v-16.384zM272.376 138.478c1.187 35.611-28.396 64.786-64.507 64.786v-16.384c27.376 0 48.993-22.024 48.133-47.854l16.375-0.549zM398.336 4.608v64.512h-16.384v-64.512h16.384z" />
<glyph unicode="&#xe90f;" glyph-name="catalog-item-degreasers" horiz-adv-x="614" d="M545.71-64h-477.019c-19.081 0-38.162 7.999-49.61 20.001-11.448 11.997-19.081 31.998-19.081 51.999v519.999c0 60.001 22.897 120.001 61.058 164.001 38.162 40 83.955 68 137.381 76v24c-3.816 0-7.632 4-11.448 8-7.632 4-11.449 16-11.449 24v104c0 8 3.816 16 7.632 24 7.632 8 15.265 8 22.897 8h198.44c7.632 0 15.263-4 22.897-8 7.631-8 7.631-16 7.631-24v-104c0-8-3.817-16-7.631-24-3.817-4-7.635-4-11.448-8v-20c53.424-8 103.035-36 137.38-76 38.162-44 61.059-104 61.059-163.999v-519.999c0-20.001-7.631-40.002-19.079-52.003-15.266-15.999-34.345-23.998-49.611-23.998zM57.242 20.001v-7.999c0-4.002 0-4.002 3.816-7.999 0 0 3.816-4.002 7.632-4.002h477.019c3.813 0 3.813 0 7.631 4.002 0 0 3.817 3.998 3.817 7.999v7.999h-499.916zM57.242 84.001h496.099v351.998h-496.099v-351.998zM57.242 499.999h496.099v28c0 48.001-19.079 92.001-49.611 124.001-30.527 36-72.503 56-118.299 56-7.632 0-15.265 4-22.897 8-7.632 8-7.632 16-7.632 24v52h-99.22v-16h61.058v-68h-91.588c-45.794 0-87.771-20-118.3-52s-49.61-76-49.61-123.999v-32.002zM236.601 856h137.381v40h-137.381v-40z" />
<glyph unicode="&#xe910;" glyph-name="catalog-item-thinners" horiz-adv-x="532" d="M506.241 651.040c0.020 38.662-14.991 75.818-41.861 103.615-26.874 27.797-63.499 44.057-102.139 45.345v128h-192v-128c-38.586-1.285-75.164-17.501-102.027-45.23s-41.911-64.803-41.973-103.41v-86.080c-0.073-30.498 9.257-60.276 26.72-85.282h-10.72v-391.037c0.042-32.068 12.8-62.812 35.475-85.488s53.417-35.43 85.485-35.475h206.080c32.068 0.045 62.811 12.8 85.486 35.475s35.43 53.42 35.475 85.488v391.037h-10.723c17.4 24.916 26.73 54.575 26.722 84.962v86.080zM234.24 864h64v-64h-64v64zM426.242 416.002v-256h-320.002v256h320.002zM369.28 32.002h-206.080c-15.094 0.041-29.557 6.054-40.23 16.728s-16.688 25.137-16.73 40.231v7.037h320.002v-7.037c-0.045-15.094-6.058-29.557-16.732-40.231s-25.136-16.687-40.23-16.728zM175.2 479.998c-22.533 0-44.143 8.954-60.076 24.887s-24.884 37.544-24.884 60.075v86.080c0 22.533 8.951 44.143 24.884 60.076s37.543 24.884 60.076 24.884h182.080c22.533 0 44.143-8.951 60.078-24.884 15.933-15.933 24.883-37.543 24.883-60.076v-86.080c0-22.531-8.95-44.141-24.883-60.075-15.935-15.933-37.545-24.887-60.078-24.887h-182.080z" />
<glyph unicode="&#xe911;" glyph-name="catalog-item-additives" horiz-adv-x="1132" d="M471.576 509.126c0.732 0.873 1.492 1.703 2.292 2.503 52.547 52.531 137.18 52.568 189.781 0.066 0.878-0.859 1.66-1.719 2.371-2.569l398.956-472.494h19.79c18.928 0 38.643-15.888 38.643-41.343 0-25.449-19.715-41.337-38.643-41.337h-200.478c-18.922 0-38.643 15.888-38.643 41.337 0 25.454 19.72 41.343 38.643 41.343h76.455l-350.898 415.569c-22.722 21.602-59.365 21.603-82.091 0.015l-350.677-415.584h489.282c18.922 0 38.643-15.888 38.643-41.343 0-25.449-19.72-41.337-38.643-41.337h-616.446c-18.925 0-38.644 15.888-38.644 41.337 0 25.454 19.719 41.343 38.644 41.343h22.941l398.721 472.494zM773.389 36.632h17.634c18.949 0 38.648-15.894 38.648-41.343s-19.72-41.337-38.648-41.337h-17.634c-18.922 0-38.643 15.888-38.643 41.337 0 25.454 19.72 41.343 38.643 41.343zM399.843 243.61c0 25.352 19.486 41.337 38.511 41.337h0.252c18.925 0 38.644-15.888 38.644-41.337 0-25.454-19.719-41.343-38.644-41.343-18.837 0-38.763 15.802-38.763 41.343zM653.948 243.61c0-25.454-19.715-41.343-38.643-41.343-18.847 0-38.777 15.797-38.777 41.343 0 25.352 19.488 41.337 38.513 41.337h0.264c18.928 0 38.643-15.888 38.643-41.337zM565.604 243.61c0-25.454-19.72-41.343-38.645-41.343-18.826 0-38.778 15.791-38.778 41.343 0 25.352 19.487 41.337 38.511 41.337h0.267c18.925 0 38.645-15.888 38.645-41.337zM610.018 318.766c0-25.454-19.72-41.343-38.643-41.343-18.836 0-38.764 15.802-38.764 41.343 0 25.352 19.486 41.337 38.51 41.337h0.253c18.922 0 38.643-15.888 38.643-41.337zM698.384 318.766c0-25.454-19.72-41.343-38.643-41.343-18.847 0-38.777 15.797-38.777 41.343 0 25.352 19.483 41.337 38.508 41.337h0.269c18.922 0 38.643-15.888 38.643-41.337zM587.798 406.582c0-25.454-19.72-41.343-38.643-41.343-18.839 0-38.765 15.802-38.765 41.343 0 25.35 19.487 41.337 38.512 41.337h0.253c18.922 0 38.643-15.887 38.643-41.337zM736.612 272.497c18.928 0 38.648-15.888 38.648-41.343 0-25.449-19.72-41.337-38.648-41.337-18.836 0-38.761 15.797-38.761 41.337 0 25.352 19.488 41.343 38.513 41.343h0.248zM299.74 131.363c0 25.352 19.486 41.337 38.511 41.337h0.252c18.925 0 38.644-15.888 38.644-41.337 0-25.454-19.719-41.343-38.644-41.343-18.837 0-38.763 15.802-38.763 41.343zM657.354 669.968c0-25.473-19.725-41.339-38.643-41.339-18.939 0-38.643 15.912-38.643 41.354 0 25.364 19.628 41.457 38.643 41.457 18.82 0 38.643-15.634 38.643-41.206v-0.267zM607.415 867.069c0-25.473-19.725-41.339-38.643-41.339-18.928 0-38.646 15.886-38.646 41.339 0 25.364 19.632 41.458 38.646 41.458 18.82 0 38.643-15.633 38.643-41.206v-0.252zM574.529 697.789c0-25.473-19.725-41.339-38.643-41.339-18.945 0-38.644 15.892-38.644 41.339 0 25.365 19.632 41.458 38.644 41.458 18.821 0 38.643-15.633 38.643-41.206v-0.252zM574.529 609.455c0-25.473-19.725-41.339-38.643-41.339-18.945 0-38.644 15.892-38.644 41.339 0 25.364 19.632 41.457 38.644 41.457 18.821 0 38.643-15.633 38.643-41.206v-0.252z" />
<glyph unicode="&#xe912;" glyph-name="catalog-item-hardeners" horiz-adv-x="614" d="M496.693 270.61h-378.962c-48.378 0-84.661 40.317-84.661 84.66v56.443c0 48.378 40.315 84.66 84.661 84.66h378.962c48.378 0 84.66-40.313 84.66-84.66v-56.443c0-44.343-36.282-84.66-84.66-84.66zM117.731 439.935c-16.126 0-28.22-12.095-28.22-28.221v-56.443c0-16.126 12.094-28.217 28.22-28.217h378.962c12.091 0 20.156 4.030 24.187 12.091 4.030 4.035 4.030 8.065 4.030 8.065v60.473c0 16.126-12.091 28.221-28.217 28.221l-378.962 4.030zM496.693 105.312h-378.962c-48.378 0-84.661 40.313-84.661 84.66v56.443c0 48.378 40.315 84.66 84.661 84.66h378.962c48.378 0 84.66-40.317 84.66-84.66v-56.443c0-48.378-36.282-84.66-84.66-84.66zM117.731 270.602c-16.126 0-28.22-12.095-28.22-28.221v-56.439c0-16.126 12.094-28.221 28.22-28.221h378.962c12.091 0 20.156 4.030 24.187 12.095 4.030 4.030 4.030 8.061 4.030 8.061v60.473c0 16.126-12.091 32.252-28.217 32.252h-378.962zM496.693-63.992h-378.962c-48.378 0-84.661 40.313-84.661 84.66v56.439c0 48.378 40.315 84.664 84.661 84.664h378.962c48.378 0 84.66-40.317 84.66-84.664v-56.439c0-48.378-36.282-84.66-84.66-84.66zM117.731 105.329c-16.126 0-28.22-12.095-28.22-28.221v-56.439c0-16.126 12.094-28.221 28.22-28.221h378.962c12.091 0 20.156 4.030 24.187 12.095 4.030 4.030 4.030 8.061 4.030 8.061v60.473c0 16.126-12.091 31.482-28.217 31.482l-378.962 0.77zM496.693 439.935h-378.962c-48.378 0-84.661 40.313-84.661 84.66v181.418c0 48.378 40.315 84.661 84.661 84.661h378.962c48.378 0 84.66-40.315 84.66-84.661v-181.418c0-44.347-36.282-84.66-84.66-84.66zM117.731 496.378h378.962c16.126 0 28.217 12.091 28.217 28.217v181.418c0 16.126-12.091 28.221-28.217 28.221h-378.962c-16.126 0-28.22-12.095-28.22-28.221v-181.418c4.031-16.126 16.126-28.217 28.22-28.217zM355.585 822.912v-32.252h-100.787v32.252h100.787zM230.609 738.251h153.197c12.094 0 24.189 12.094 24.189 24.189v84.661c0 12.094-12.095 24.189-24.189 24.189h-153.197c-12.094 0-24.189-12.095-24.189-24.189v-84.661c0-12.095 12.095-24.189 24.189-24.189zM416.080 818.898h-217.699c-32.252 0-56.441 24.189-56.441 56.441v28.221c0 32.252 24.189 56.441 56.441 56.441h217.699c32.252 0 56.443-24.189 56.443-56.441v-28.221c0-32.252-24.191-56.441-56.443-56.441zM194.349 875.339h225.765v32.252h-225.765v-32.252zM399.935 629.434h-334.614c-16.126 0-28.221 12.095-28.221 28.221s12.095 28.221 28.221 28.221h334.614c16.125 0 28.22-12.095 28.22-28.221s-12.095-28.221-28.22-28.221zM283.013 540.725h-209.638c-16.126 0-28.22 12.093-28.22 28.219s12.094 28.22 28.22 28.22h209.638c16.126 0 28.221-12.094 28.221-28.22s-12.095-28.219-28.221-28.219z" />
<glyph unicode="&#xe913;" glyph-name="catalog-item-varnish" d="M271.581 499.2c4.452-1.113 10.017-2.226 14.47-3.339 1.113 1.113 2.226 2.226 3.339 3.339 131.339 101.288 266.019 197.010 404.037 289.393 69.009 45.635 139.13 91.27 209.252 134.678 37.843 23.374 80.139 41.183 111.304 0 6.678-7.791 4.452-20.035 0-27.826-24.487-53.426-74.574-92.383-116.87-132.452-50.087-46.748-101.287-92.383-153.6-136.904-103.513-89.043-212.591-172.523-323.897-252.662 14.47-61.217-11.13-128-54.539-172.522-32.278-33.391-81.252-42.296-114.643-75.687-38.957-37.843-42.296-94.609-23.374-142.47 10.017-25.6-21.148-41.183-41.183-31.165-101.287 48.974-172.522 129.113-179.2 244.87-4.452 79.026 26.713 163.617 75.687 225.948 47.861 53.426 114.643 91.27 189.217 76.8zM826.991 773.010c36.73 33.391 83.478 69.009 114.643 110.191-71.235-41.183-282.713-185.878-306.087-202.574-99.061-67.896-195.897-139.13-291.619-211.48 20.035-12.243 37.843-27.826 51.2-46.748 100.176 72.348 198.124 148.036 291.619 227.062 47.861 41.183 94.609 82.365 140.243 123.548zM160.276 30.609c-1.113 31.165 6.678 62.33 21.148 93.496 32.278 67.896 105.739 76.8 153.6 125.774 51.2 53.426 36.73 134.678-21.148 173.635-69.009 45.635-143.583 15.583-193.67-41.183-35.617-45.635-55.652-107.965-58.991-165.843-3.339-81.252 38.957-143.583 99.061-185.878z" />
<glyph unicode="&#xe914;" glyph-name="catalog-item-putties" horiz-adv-x="579" d="M543.726 922.157c0 0.122 0.031 0.234 0.031 0.356 0 0.634-0.142 1.235-0.187 1.859-0.067 1.013-0.111 2.026-0.303 3.005-0.156 0.824-0.423 1.592-0.646 2.382-0.245 0.846-0.445 1.692-0.779 2.493-0.321 0.813-0.757 1.569-1.158 2.349-0.378 0.735-0.721 1.469-1.166 2.159-0.467 0.712-1.015 1.358-1.536 2.026-0.525 0.668-1.024 1.336-1.616 1.948-0.579 0.601-1.224 1.113-1.848 1.658-0.654 0.568-1.278 1.146-1.99 1.647-0.726 0.512-1.514 0.913-2.293 1.358-0.703 0.401-1.38 0.824-2.128 1.158-0.935 0.412-1.923 0.701-2.903 1.002-0.592 0.178-1.113 0.456-1.727 0.601-0.12 0.033-0.232 0.022-0.343 0.045-0.913 0.2-1.861 0.267-2.796 0.367-0.855 0.1-1.714 0.245-2.56 0.256-0.134 0.011-0.254 0.045-0.378 0.045h-456.013c-8.047 0-15.649-3.673-20.647-9.973s-6.845-14.536-5.020-22.361l165.955-711.535v-170.14c0-48.373 39.346-87.73 87.719-87.73s87.719 39.357 87.719 87.717v180.994l165.945 700.594c0.022 0.111 0.022 0.234 0.045 0.345 0.187 0.879 0.254 1.792 0.356 2.705 0.098 0.89 0.254 1.781 0.267 2.671zM484.067 896.143l-113.877-480.8c-13.345 31.441-44.544 53.56-80.796 53.56-37.421 0-69.343-23.588-81.92-56.645l-112.863 483.885h389.455zM324.389 34.847c0-19.3-15.694-35.003-34.994-35.003s-34.994 15.703-34.994 35.003v346.335c0 19.3 15.694 34.994 34.994 34.994s34.994-15.694 34.994-34.981v-346.348z" />
<glyph unicode="&#xe915;" glyph-name="catalog-item-protectcomp" horiz-adv-x="778" d="M771.158 702.219h-37.163v257.781h-689.711v-257.781h-37.164v-170.365h37.164v-595.853h689.711v595.853h37.163v170.365zM104.284 900h569.713v-197.782h-569.713v197.782zM711.16 591.852h-92.406v50.367h92.406v-50.367zM438.915 450.298c-44.084 0-79.944-35.86-79.944-79.946v-97.923c0-10.99-8.953-19.943-19.945-19.943-11 0-19.945 8.954-19.945 19.943v369.79h239.671v-296.32c0-11.002-8.946-19.948-19.943-19.948-11.002 0-19.948 8.946-19.948 19.948v24.453c0 44.085-35.856 79.946-79.946 79.946zM259.081 591.852h-191.961v50.367h191.961v-50.367zM673.997-4.002h-569.713v535.855h154.797v-259.424c0-44.077 35.859-79.946 79.945-79.946 44.078 0 79.945 35.869 79.945 79.946v97.923c0 10.998 8.946 19.943 19.943 19.943 11.002 0 19.948-8.946 19.948-19.943v-24.461c0-44.077 35.869-79.946 79.946-79.946 44.085 0 79.954 35.869 79.954 79.946v185.962h55.235v-535.855z" />
<glyph unicode="&#xe916;" glyph-name="catalog-item-spray" horiz-adv-x="748" d="M534.977 703.681l-160.951 107.307v100.424c0 15.931-12.915 28.846-28.846 28.846h-115.864c-15.931 0-28.846-12.915-28.846-28.846v-100.426l-160.95-107.301c-7.744-5.173-12.846-13.99-12.846-24.002v-695.188c0-15.931 12.915-28.845 28.846-28.845h463.456c15.931 0 28.849 12.914 28.849 28.845v695.188c0 10.012-5.104 18.825-12.847 23.998zM238.048 766.701h98.397l87.258-58.173h-272.914l87.259 58.173zM258.162 882.566h58.173v-58.173h-58.173v58.173zM490.13 13.344h-405.765v637.494h405.765v-637.494zM699.77 823.575l-119.792 29.948 119.792 29.948c15.455 3.863 24.852 19.525 20.988 34.981-3.868 15.455-19.527 24.852-34.981 20.988l-231.727-57.932c-12.843-3.21-21.851-14.748-21.851-27.984s9.007-24.775 21.851-27.985c0 0 236.43-58.799 238.746-58.799 12.922 0 24.686 8.75 27.963 21.855 3.864 15.454-5.537 31.115-20.988 34.981z" />
<glyph unicode="&#xe917;" glyph-name="catalog-item-sale" horiz-adv-x="1161" d="M939.37 192.703c10.397 10.397 15.599 21.798 15.599 34.195 0 12.404-5.202 23.6-15.599 33.601-10.001 10.404-21.204 15.599-33.601 15.599-12.001 0-23.204-5.195-33.601-15.599-10.404-10.001-15.599-21.197-15.599-33.601 0-12.397 5.195-23.798 15.599-34.195 10.397-10.001 21.6-15.005 33.601-15.005 12.397 0 23.6 5.004 33.601 15.005zM735.369 66.703c-46.005 44.797-69.002 98.195-69.002 160.195 0 62.402 22.997 115.802 69.002 160.202 46.401 44.8 103.199 67.2 170.4 67.2 67.195 0 124-22.4 170.4-67.2 46.394-44.4 69.598-97.8 69.598-160.202 0-62-23.204-115.398-69.598-160.195-46.401-44.803-103.206-67.202-170.4-67.202-67.202 0-124 22.398-170.4 67.202zM174.967 18.097l540.598 860.402h270.001l-540.599-860.402h-270zM424.567 829.3c46.4-44.4 69.6-97.8 69.6-160.2 0-62-23.2-115.4-69.6-160.2-46-44.4-102.6-66.6-169.8-66.6s-124 22.2-170.4 66.6c-46.4 44.8-69.6 98.2-69.6 160.2 0 62.4 23.2 115.8 69.6 160.2 46.4 44.8 103.2 67.2 170.4 67.2s123.8-22.4 169.8-67.2zM220.567 702.7c-10-10-15-21.2-15-33.6 0-12 5-23.2 15-33.6 10.4-10 21.8-15 34.2-15s23.6 5 33.6 15c10.4 10.4 15.6 21.6 15.6 33.6 0 12.4-5.201 23.6-15.6 33.6-10 10.4-21.2 15.6-33.6 15.6s-23.8-5.2-34.2-15.6z" />
<glyph unicode="&#xe918;" glyph-name="profile-search" horiz-adv-x="862" d="M759.91-18.189l-37.726 48.505-167.074 194.021c-53.895-32.337-113.179-53.895-172.463-53.895-183.242 0-334.147 167.074-334.147 371.875s150.905 371.874 334.147 371.874 334.147-167.074 334.147-371.874c0-80.842-21.558-156.296-64.674-220.969l210.189-242.526-102.4-97.011zM382.647 768.675c-113.179 0-199.411-102.4-199.411-226.358 0-123.959 91.621-226.359 199.411-226.359s199.411 102.4 199.411 226.359c0 123.958-86.232 226.358-199.411 226.358z" />
<glyph unicode="&#xe919;" glyph-name="profile-cart" d="M827.338 224.272c-14.234 7.076-30.655 10.612-45.988 10.612h-446.728l-16.424 103.769h562.793l116.062 416.24h-744.55l-25.183 154.469h-200.371v-74.287h141.246l97.448-613.158c-56.936-30.661-79.93-104.944-52.557-166.26s97.449-86.081 154.385-56.6c54.747 29.48 78.835 100.228 54.747 161.544h254.023c-25.185-62.496 1.094-135.605 59.128-162.724 58.028-27.12 125.914 1.18 151.099 63.677 26.279 62.491-1.094 135.599-59.128 162.719z" />
<glyph unicode="&#xe91a;" glyph-name="profile-user" horiz-adv-x="916" d="M440.941 446.763c-232.409 0-421.494-207.993-421.494-463.643 0-11.129 8.211-20.162 18.326-20.162h806.336c10.116 0 18.324 9.033 18.324 20.162 0 255.65-189.084 463.643-421.493 463.643zM440.952 489.568c111.334 0 201.586 99.277 201.586 221.742s-90.252 221.742-201.586 221.742c-111.331 0-201.584-99.277-201.584-221.742s90.252-221.742 201.584-221.742z" />
<glyph unicode="&#xe920;" glyph-name="footer-phone" d="M748.915 617.118l-62.879 62.829c100.193-11.648 178.501-96.059 178.501-199.327h100.844c0 160.147-125.098 291.2-282.673 301.537l66.207 66.156-71.3 71.3-186.922-186.923 186.922-186.923 71.3 71.35zM603.537 255.026c-27.886 1.895-108.245 49.413-143.913 85.039s-91.582 126.026-91.582 160.267l74.699 74.981-199.68 299.419-132.616-132.616c-109.975-110.026-39.482-352.718 160.451-552.65 131.507-131.507 289.233-213.196 411.664-213.196 57.786 0 106.496 18.209 141.087 52.745l132.519 132.616-267.587 178.433-85.040-85.039z" />
<glyph unicode="&#xe921;" glyph-name="footer-email" horiz-adv-x="1252" d="M44.732 894.972h1162.155l-581.078-478.631-587.648 477.29c2.15 0.629 4.348 1.076 6.571 1.341zM597.575 323.926c16.468-13.486 40.164-13.486 56.632 0l597.349 492.129v-770.332c0-24.686-20.014-44.699-44.703-44.699h-1162.153c-24.687 0-44.699 20.012-44.699 44.699v763.717l597.575-485.514z" />
<glyph unicode="&#xe922;" glyph-name="footer-workclock" d="M512 960c-281.873 0-512-230.127-512-512 0-283.234 230.127-512 512-512s512 230.127 512 512c0 281.873-230.127 512-512 512zM792.511 366.298h-358.128v394.893h108.937v-285.958h249.191v-108.936z" />
<glyph unicode="&#xe923;" glyph-name="footer-youtube" d="M984.090 149.55c-36.966-43.94-105.211-61.865-235.54-61.865h-473.106c-133.315 0-202.716 19.082-239.54 65.864-35.903 45.609-35.903 112.814-35.903 205.824v177.283c0 180.194 42.598 271.684 275.443 271.684h473.106c113.024 0 175.652-15.816 216.172-54.593 41.549-39.764 59.279-104.689 59.279-217.092v-177.283c0-98.089-2.78-165.688-39.91-209.823zM657.413 472.49l-214.837 112.28c-4.803 2.511-10.055 3.756-15.3 3.756-5.939 0-11.866-1.599-17.114-4.776-9.883-5.989-15.919-16.701-15.919-28.256v-223.841c0-11.535 6.019-22.236 15.882-28.227 9.867-5.996 22.138-6.405 32.375-1.085l214.836 111.555c10.931 5.678 17.792 16.963 17.812 29.271 0.010 12.322-6.825 23.622-17.736 29.324z" />
<glyph unicode="&#xe924;" glyph-name="footer-instagram" d="M512 656c-115.8 0-210-94.2-210-210.002 0-115.799 94.2-209.997 210-209.997s210.002 94.198 210.002 209.997c0 115.802-94.203 210.002-210.002 210.002zM512 656c-115.8 0-210-94.2-210-210.002 0-115.799 94.2-209.997 210-209.997s210.002 94.198 210.002 209.997c0 115.802-94.203 210.002-210.002 210.002zM873.999 960h-723.999c-82.8 0-150-67.2-150-150v-723.999c0-82.801 67.2-150.001 150-150.001h723.999c82.801 0 150.001 67.2 150.001 150.001v723.999c0 82.8-67.2 150-150.001 150zM512 176c-148.798 0-270 121.201-270 269.998 0 148.804 121.202 270.002 270 270.002s269.998-121.198 269.998-270.002c0-148.797-121.201-269.998-269.998-269.998zM841.999 716c-32.998 0-60.001 27-60.001 60s27.003 60 60.001 60c32.998 0 60.001-27 60.001-60s-27.003-60-60.001-60zM512 656c-115.8 0-210-94.2-210-210.002 0-115.799 94.2-209.997 210-209.997s210.002 94.198 210.002 209.997c0 115.802-94.203 210.002-210.002 210.002zM512 656c-115.8 0-210-94.2-210-210.002 0-115.799 94.2-209.997 210-209.997s210.002 94.198 210.002 209.997c0 115.802-94.203 210.002-210.002 210.002zM512 656c-115.8 0-210-94.2-210-210.002 0-115.799 94.2-209.997 210-209.997s210.002 94.198 210.002 209.997c0 115.802-94.203 210.002-210.002 210.002z" />
</font>
</defs>
</svg>
